<?xml version="1.0" standalone="no"?>
<!DOCTYPE svg PUBLIC "-//W3C//DTD SVG 20010904//EN"
 "http://www.w3.org/TR/2001/REC-SVG-20010904/DTD/svg10.dtd">
<svg version="1.0" xmlns="http://www.w3.org/2000/svg"
 width="2732.000000pt" height="1338.000000pt" viewBox="0 0 2732.000000 1338.000000"
 preserveAspectRatio="xMidYMid meet">

<g transform="translate(0.000000,1338.000000) scale(0.100000,-0.100000)"
fill="#000000" stroke="none">
<path d="M19080 13338 c1250 -805 2268 -1595 3705 -2872 356 -317 454 -405
815 -733 91 -81 282 -254 425 -383 850 -764 1389 -1328 1820 -1905 519 -693
802 -1298 896 -1915 29 -193 37 -521 15 -704 -94 -810 -512 -1604 -1431 -2721
-86 -104 -190 -231 -230 -281 -144 -179 -382 -416 -593 -592 -560 -466 -1186
-806 -2012 -1093 l-225 -78 2528 0 2527 -1 0 6660 0 6660 -4152 0 -4153 0 65
-42z"/>
<path d="M0 2011 l0 -1951 7223 1 c3972 1 7213 3 7202 6 -11 2 -301 74 -645
158 -1077 266 -1584 371 -2615 544 -517 87 -1483 227 -2280 330 -586 76 -1099
143 -1300 171 -121 16 -335 45 -475 64 -1586 216 -2713 433 -3645 702 -782
226 -1402 480 -1950 800 -396 231 -996 675 -1472 1089 l-43 37 0 -1951z"/>
</g>
</svg>
